HIERARCHY
ROOT Hips
{
	OFFSET -0.001795 -0.223333 0.028219
	CHANNELS 6 Xposition Yposition Zposition Zrotation Yrotation Xrotation 
	JOINT LeftUpLeg
	{
		OFFSET 0.069520 -0.091406 -0.006815
		CHANNELS 3 Zrotation Yrotation Xrotation
		JOINT LeftLeg
		{
			OFFSET 0.034277 -0.375199 -0.004496
			CHANNELS 3 Zrotation Yrotation Xrotation
			JOINT LeftFoot
			{
				OFFSET -0.013596 -0.397961 -0.043693
				CHANNELS 3 Zrotation Yrotation Xrotation
				JOINT LeftToe
				{
					OFFSET 0.026358 -0.055791 0.119288
					CHANNELS 3 Zrotation Yrotation Xrotation
					End Site
					{
						OFFSET 0.000000 0.000000 0.000000
					}
				}
			}
		}
	}
	JOINT RightUpLeg
	{
		OFFSET -0.067670 -0.090522 -0.004320
		CHANNELS 3 Zrotation Yrotation Xrotation
		JOINT RightLeg
		{
			OFFSET -0.038290 -0.382569 -0.008850
			CHANNELS 3 Zrotation Yrotation Xrotation
			JOINT RightFoot
			{
				OFFSET 0.015774 -0.398415 -0.042312
				CHANNELS 3 Zrotation Yrotation Xrotation
				JOINT RightToe
				{
					OFFSET -0.025372 -0.048144 0.123348
					CHANNELS 3 Zrotation Yrotation Xrotation
					End Site
					{
						OFFSET 0.000000 0.000000 0.000000
					}
				}
			}
		}
	}
	JOINT Spine
	{
		OFFSET -0.002533 0.108963 -0.026696
		CHANNELS 3 Zrotation Yrotation Xrotation
		JOINT Spine1
		{
			OFFSET 0.005487 0.135180 0.001092
			CHANNELS 3 Zrotation Yrotation Xrotation
			JOINT Spine2
			{
				OFFSET 0.001457 0.052922 0.025425
				CHANNELS 3 Zrotation Yrotation Xrotation
				JOINT Neck
				{
					OFFSET -0.002778 0.213870 -0.042857
					CHANNELS 3 Zrotation Yrotation Xrotation
					JOINT Head
					{
						OFFSET 0.005152 0.064970 0.051349
						CHANNELS 3 Zrotation Yrotation Xrotation
						End Site
						{
							OFFSET 0.000000 0.000000 0.000000
						}
					}
				}
				JOINT LeftShoulder
				{
					OFFSET 0.078845 0.121749 -0.034090
					CHANNELS 3 Zrotation Yrotation Xrotation
					JOINT LeftArm
					{
						OFFSET 0.090977 0.030469 -0.008868
						CHANNELS 3 Zrotation Yrotation Xrotation
						JOINT LeftForeArm
						{
							OFFSET 0.259612 -0.012772 -0.027456
							CHANNELS 3 Zrotation Yrotation Xrotation
							JOINT LeftHand
							{
								OFFSET 0.249234 0.008986 -0.001171
								CHANNELS 3 Zrotation Yrotation Xrotation
								End Site
								{
									OFFSET 0.000000 0.000000 0.000000
								}
							}
						}
					}
				}
				JOINT RightShoulder
				{
					OFFSET -0.081759 0.118833 -0.038615
					CHANNELS 3 Zrotation Yrotation Xrotation
					JOINT RightArm
					{
						OFFSET -0.096012 0.032551 -0.009143
						CHANNELS 3 Zrotation Yrotation Xrotation
						JOINT RightForeArm
						{
							OFFSET -0.253742 -0.013329 -0.021401
							CHANNELS 3 Zrotation Yrotation Xrotation
							JOINT RightHand
							{
								OFFSET -0.255298 0.007772 -0.005559
								CHANNELS 3 Zrotation Yrotation Xrotation
								End Site
								{
									OFFSET 0.000000 0.000000 0.000000
								}
							}
						}
					}
				}
			}
		}
	}
}
MOTION
Frames: 18
Frame Time: 0.050000
0.000000 0.959803 0.000000 -0.454908 1.770999 0.324875 2.741182 0.250037 4.539313 -0.090667 0.219039 -6.434032 3.386296 12.449342 23.745265 0.000000 0.000000 0.000000 -1.042880 -0.058163 0.860675 0.634008 -0.060054 0.285521 -10.226194 -22.732903 23.258383 0.000000 0.000000 0.000000 1.078744 -0.238174 4.509231 1.138842 0.430753 -26.366504 -2.153498 -0.006972 28.622303 3.288820 -0.626899 -21.492826 0.000000 0.000000 0.000000 2.468396 8.161989 -2.615631 -7.483685 -13.554623 -1.211123 11.335755 -4.952291 -0.279078 0.000000 0.000000 0.000000 -6.603452 -8.025374 -2.287523 11.970911 9.548009 -1.349013 -10.886416 8.307750 -0.277875 0.000000 0.000000 0.000000 
0.000269 0.958781 0.002093 -0.845839 1.772738 0.526077 3.096291 0.278653 5.383470 0.016385 0.265631 -8.073625 3.374443 12.421026 23.682418 0.000000 0.000000 0.000000 -0.603451 -0.126319 1.439889 0.344051 -0.053369 -0.434161 -9.327253 -21.515990 21.976444 0.000000 0.000000 0.000000 1.441121 -0.240154 4.188091 0.678125 0.540197 -26.607510 -1.782220 -0.615171 28.418056 2.171706 0.029455 -21.973613 0.000000 0.000000 0.000000 1.746144 7.695551 -2.559956 -7.296710 -11.498760 -1.198632 8.077207 -7.080919 -0.222550 0.000000 0.000000 0.000000 -6.150750 -7.195017 -2.022098 11.888829 7.888881 -1.385769 -10.302118 10.379466 -0.400776 0.000000 0.000000 0.000000 
0.000370 0.958059 0.003531 -0.599801 1.309676 0.359470 2.896022 0.318161 5.679103 -0.186178 0.271590 -7.964749 3.627713 12.661486 23.605715 0.000000 0.000000 0.000000 -1.407534 -0.104406 1.510308 0.779215 -0.094512 -0.300027 -8.581186 -20.490992 21.990402 0.000000 0.000000 0.000000 1.092243 -0.220509 4.152891 0.828436 0.519424 -27.211210 -1.983644 0.356160 29.759542 2.640594 -0.087536 -22.869187 0.000000 0.000000 0.000000 0.539949 8.000114 -2.805886 -7.675700 -12.714938 -1.241466 8.401975 -8.239089 -0.300054 0.000000 0.000000 0.000000 -4.499689 -7.971752 -2.475977 13.335652 9.646814 -1.462711 -10.929353 9.721302 -0.370201 0.000000 0.000000 0.000000 
0.000465 0.957722 0.004806 -0.601817 1.195824 -0.197282 2.828864 0.362686 6.220680 -0.071283 0.258182 -7.660282 3.710568 12.728903 23.423004 0.000000 0.000000 0.000000 -1.585225 -0.174004 2.351647 1.126011 -0.142528 -0.678655 -8.685888 -20.660588 22.063438 0.000000 0.000000 0.000000 0.938150 -0.232461 4.575053 1.280559 0.442524 -27.898339 -2.281982 -0.088697 30.834676 2.439636 -0.021210 -23.483820 0.000000 0.000000 0.000000 -0.344670 8.422763 -3.078236 -9.933009 -12.650285 -1.399946 8.852335 -9.244412 -0.356344 0.000000 0.000000 0.000000 -4.513456 -7.640456 -2.344235 13.945327 10.331240 -1.480270 -9.543919 9.533975 -0.287691 0.000000 0.000000 0.000000 
0.000364 0.958062 0.005779 -0.593179 1.338979 -0.544375 3.013756 0.367794 6.501471 -0.359769 0.261871 -7.407873 3.597661 12.608074 23.413944 0.000000 0.000000 0.000000 -1.444723 -0.223073 2.813732 0.877965 -0.120661 -0.783083 -8.805543 -20.811630 22.467359 0.000000 0.000000 0.000000 0.589657 -0.220300 4.683459 1.646760 0.355237 -27.620544 -2.305829 0.153713 30.039058 2.688947 -0.189018 -22.478541 0.000000 0.000000 0.000000 -0.977100 7.698042 -2.874703 -11.568739 -12.785324 -1.447468 7.745649 -11.259831 -0.348454 0.000000 0.000000 0.000000 -3.838882 -6.685844 -2.091974 15.590011 9.945986 -1.561847 -8.412481 10.192198 -0.238717 0.000000 0.000000 0.000000 
0.000292 0.958406 0.006395 -0.457190 1.746139 -0.489683 2.956460 0.352989 6.295801 -0.440445 0.257605 -7.184777 3.365769 12.371209 23.413009 0.000000 0.000000 0.000000 -1.846796 -0.212959 2.873075 0.964308 -0.129277 -0.754843 -8.172916 -19.848317 22.600752 0.000000 0.000000 0.000000 0.182310 -0.183569 4.278030 1.831184 0.315922 -27.481735 -2.385778 -0.536774 30.228842 2.733219 -0.210346 -23.462393 0.000000 0.000000 0.000000 -1.480974 7.974481 -3.034628 -14.356191 -13.273335 -1.579091 7.403980 -12.521192 -0.330338 0.000000 0.000000 0.000000 -4.068900 -6.320263 -1.931086 18.410392 10.910108 -1.625067 -7.646692 10.314405 -0.190827 0.000000 0.000000 0.000000 
0.000225 0.958375 0.006717 -0.384276 1.669105 -0.530226 3.063278 0.349232 6.328820 -0.771092 0.270252 -7.101769 3.385578 12.387784 23.428604 0.000000 0.000000 0.000000 -1.725075 -0.213397 2.822210 0.565491 -0.083958 -0.638886 -8.171653 -19.854928 22.752036 0.000000 0.000000 0.000000 0.087267 -0.184556 4.404242 2.025090 0.261576 -27.116495 -2.466169 -0.533775 29.737757 2.736107 -0.200884 -23.555271 0.000000 0.000000 0.000000 -2.380038 7.666548 -3.020468 -15.964397 -13.014618 -1.662251 6.049709 -13.252313 -0.195882 0.000000 0.000000 0.000000 -3.012305 -5.785736 -1.830885 19.660958 11.035120 -1.657393 -6.636425 10.488279 -0.127520 0.000000 0.000000 0.000000 
0.000203 0.958226 0.006946 -0.359196 1.802016 -0.356800 3.138080 0.320182 5.989252 -0.929998 0.270476 -6.845068 3.347372 12.339706 23.319945 0.000000 0.000000 0.000000 -1.638104 -0.202219 2.652523 0.394166 -0.058723 -0.431102 -8.108565 -19.747053 22.265656 0.000000 0.000000 0.000000 0.154233 -0.183300 4.301614 1.964530 0.282414 -27.282680 -2.598120 -0.601765 30.111097 3.162572 -0.415976 -24.156396 0.000000 0.000000 0.000000 -3.327861 7.227006 -2.958338 -17.513804 -12.772141 -1.783538 5.063770 -14.002354 -0.088966 0.000000 0.000000 0.000000 -2.180284 -5.494994 -1.803179 21.543813 11.424591 -1.727130 -5.963964 10.510050 -0.075698 0.000000 0.000000 0.000000 
0.000256 0.957922 0.007216 -0.333518 1.726012 -0.180707 3.374706 0.289291 5.739422 -1.418671 0.290164 -6.689331 3.400230 12.382043 23.244057 0.000000 0.000000 0.000000 -1.751455 -0.180486 2.472072 0.576478 -0.073781 -0.307525 -8.061829 -19.688298 21.795434 0.000000 0.000000 0.000000 0.127979 -0.174709 4.125727 2.083891 0.245684 -27.041587 -2.621726 -0.504673 29.917294 3.174439 -0.374764 -24.499851 0.000000 0.000000 0.000000 -4.302344 6.869410 -2.929909 -18.966172 -12.703730 -1.862211 4.211192 -14.301408 0.015692 0.000000 0.000000 0.000000 -1.121754 -5.129786 -1.756910 22.769530 11.612799 -1.751486 -5.416921 10.730205 -0.038533 0.000000 0.000000 0.000000 
0.000340 0.957726 0.007577 -0.306367 1.638536 0.109127 3.349792 0.269452 5.391162 -1.460409 0.290197 -6.571877 3.479525 12.462877 23.209819 0.000000 0.000000 0.000000 -1.828443 -0.141328 2.076407 0.609084 -0.073360 -0.196605 -8.038140 -19.660701 21.850170 0.000000 0.000000 0.000000 0.198218 -0.161557 3.748995 1.958484 0.265091 -26.820929 -2.647643 -0.464329 29.892617 3.341523 -0.448405 -24.771757 0.000000 0.000000 0.000000 -5.148992 6.566084 -2.902996 -20.399021 -12.424413 -1.974170 3.389903 -14.874837 0.124605 0.000000 0.000000 0.000000 -0.122947 -4.835140 -1.726528 24.268010 11.666584 -1.808152 -4.447274 10.908309 0.030429 0.000000 0.000000 0.000000 
0.000433 0.957322 0.008134 -0.334747 1.513997 0.119283 3.500536 0.253742 5.256442 -1.701088 0.297018 -6.255278 3.586741 12.558036 23.054968 0.000000 0.000000 0.000000 -1.786591 -0.139445 2.044526 0.635879 -0.073909 -0.131445 -8.139375 -19.824934 21.694198 0.000000 0.000000 0.000000 0.252784 -0.162334 3.716215 1.901623 0.270285 -26.635820 -2.632344 -0.302825 29.636794 3.460686 -0.490440 -24.862623 0.000000 0.000000 0.000000 -6.047000 6.051431 -2.795815 -21.757679 -12.029653 -2.093409 2.602356 -15.362611 0.232682 0.000000 0.000000 0.000000 1.194073 -4.397956 -1.661847 25.793539 11.298727 -1.924505 -3.866913 11.716060 0.074918 0.000000 0.000000 0.000000 
0.000441 0.957020 0.008961 -0.292300 1.484812 0.156598 3.543075 0.250020 5.233504 -1.860840 0.304152 -6.179077 3.615396 12.577837 22.976919 0.000000 0.000000 0.000000 -1.846133 -0.137348 2.050652 0.712669 -0.075346 0.076408 -8.077084 -19.738922 21.047276 0.000000 0.000000 0.000000 0.176327 -0.153078 3.573983 1.952424 0.252386 -26.482577 -2.634350 -0.254016 29.516733 3.423344 -0.432229 -25.126849 0.000000 0.000000 0.000000 -6.910490 5.828309 -2.801323 -23.629227 -11.761147 -2.239368 1.629530 -15.834340 0.378385 0.000000 0.000000 0.000000 2.429097 -4.098451 -1.636569 27.757390 10.888072 -2.084364 -2.842651 13.053895 0.172622 0.000000 0.000000 0.000000 
0.000431 0.956755 0.009854 -0.331988 1.432508 0.151220 3.660622 0.245928 5.277553 -1.994717 0.310629 -6.128159 3.658245 12.612822 22.894382 0.000000 0.000000 0.000000 -1.878531 -0.146217 2.171052 0.768904 -0.087988 -0.124482 -8.005460 -19.640619 21.217865 0.000000 0.000000 0.000000 0.220841 -0.148488 3.427755 1.865834 0.261882 -26.201641 -2.515713 0.015338 29.402599 3.373543 -0.344417 -25.259844 0.000000 0.000000 0.000000 -8.083787 5.180403 -2.672916 -25.125916 -11.700150 -2.334099 1.043434 -15.761843 0.456293 0.000000 0.000000 0.000000 4.006955 -3.775853 -1.611750 30.003375 10.326273 -2.317489 -2.270100 14.311592 0.257930 0.000000 0.000000 0.000000 
0.000429 0.956408 0.010550 -0.300284 1.529310 0.043544 3.817840 0.239550 5.346013 -2.306171 0.324539 -5.977412 3.614461 12.548725 22.751314 0.000000 0.000000 0.000000 -2.011202 -0.150606 2.271761 0.910154 -0.101436 -0.059538 -8.051011 -19.695866 21.321412 0.000000 0.000000 0.000000 0.257148 -0.153957 3.524195 1.724964 0.282872 -25.903358 -2.494161 0.011362 29.206766 3.363990 -0.283017 -25.706264 0.000000 0.000000 0.000000 -9.052216 4.692374 -2.572026 -27.058288 -11.767668 -2.430124 0.595441 -15.706154 0.523188 0.000000 0.000000 0.000000 5.511461 -3.372354 -1.545455 32.167243 10.001772 -2.501851 -1.482920 15.581803 0.380483 0.000000 0.000000 0.000000 
0.000502 0.955866 0.010968 -0.345131 1.579045 0.069560 4.028309 0.225097 5.345231 -2.586988 0.339154 -5.984621 3.614713 12.527978 22.575177 0.000000 0.000000 0.000000 -2.068237 -0.159526 2.402112 1.143078 -0.131405 -0.213194 -8.097707 -19.760745 21.019431 0.000000 0.000000 0.000000 0.245770 -0.148411 3.405293 1.690261 0.284332 -25.687621 -2.429913 0.008275 29.097118 3.267631 -0.193168 -25.968051 0.000000 0.000000 0.000000 -10.386887 4.018451 -2.416274 -28.447040 -11.849080 -2.494168 0.257006 -15.348122 0.560891 0.000000 0.000000 0.000000 6.809084 -2.756747 -1.367338 34.199839 9.712969 -2.681353 -0.862504 16.492682 0.490047 0.000000 0.000000 0.000000 
0.000621 0.955371 0.011223 -0.288703 1.559620 0.045606 4.083802 0.216367 5.231968 -2.808484 0.348883 -5.695967 3.661157 12.557503 22.397438 0.000000 0.000000 0.000000 -2.190212 -0.153624 2.391489 1.207400 -0.135636 -0.119890 -8.084095 -19.743841 20.862508 0.000000 0.000000 0.000000 0.171172 -0.148249 3.469422 1.626952 0.290470 -25.461046 -2.373204 -0.032158 29.035747 2.944179 0.034202 -26.479868 0.000000 0.000000 0.000000 -12.101878 3.419770 -2.310026 -29.832128 -11.836229 -2.582317 0.027133 -15.207359 0.593991 0.000000 0.000000 0.000000 8.448361 -2.002594 -1.141012 36.106926 9.764283 -2.785162 -0.324267 17.495756 0.603674 0.000000 0.000000 0.000000 
0.000802 0.954994 0.011543 -0.208696 1.555702 0.075131 4.176137 0.208862 5.197824 -3.144974 0.367410 -5.645360 3.665111 12.547745 22.312304 0.000000 0.000000 0.000000 -2.273255 -0.157832 2.486857 1.230379 -0.146461 -0.415022 -8.281872 -20.038287 21.034688 0.000000 0.000000 0.000000 -0.048311 -0.145320 3.604584 1.839978 0.234689 -25.295445 -2.397228 -0.102621 28.831576 2.604034 0.252332 -26.839013 0.000000 0.000000 0.000000 -13.785042 2.840535 -2.194491 -30.970097 -11.765226 -2.657108 -0.520777 -15.422577 0.680931 0.000000 0.000000 0.000000 9.864277 -1.305338 -0.916423 37.920232 9.861431 -2.849475 0.040770 18.264157 0.694348 0.000000 0.000000 0.000000 
0.001030 0.954833 0.012073 -0.120935 1.580622 -0.047759 4.204047 0.213109 5.291461 -3.376842 0.380010 -5.509333 3.641271 12.512141 22.257054 0.000000 0.000000 0.000000 -2.389902 -0.170154 2.687638 1.177968 -0.146370 -0.601693 -8.315779 -20.084037 21.377019 0.000000 0.000000 0.000000 -0.180566 -0.146760 3.773708 1.944677 0.207424 -25.210337 -2.484902 -0.150972 28.926263 2.422476 0.397475 -27.464891 0.000000 0.000000 0.000000 -15.303756 2.506236 -2.170738 -32.591845 -11.685064 -2.781764 -0.834506 -16.148767 0.769237 0.000000 0.000000 0.000000 11.590181 -0.728136 -0.741796 39.810665 9.978979 -2.932784 0.159653 19.262689 0.771212 0.000000 0.000000 0.000000 
